<?xml version="1.0" encoding="UTF-8" standalone="no"?>
<!DOCTYPE svg PUBLIC "-//W3C//DTD SVG 1.1//EN" "http://www.w3.org/Graphics/SVG/1.1/DTD/svg11.dtd">
<svg version="1.1" xmlns="http://www.w3.org/2000/svg" xmlns:xlink="http://www.w3.org/1999/xlink" preserveAspectRatio="xMidYMid meet" viewBox="0 0 640 640" width="640" height="640"><defs><path d="M178.99 504.72C210.5 567.49 255.59 631.83 333.09 627.24C439.8 615.7 500.67 556.85 503.23 497.05C505.78 437.27 524.46 420.59 562.27 401.53C613.25 370.88 634.96 329.23 627.42 276.6C616.12 197.65 533.65 197.03 475.85 150.91C418.05 104.79 416.39 40.59 357.33 19.75C298.27 -1.09 256.69 26.46 220.41 70.4C165.99 136.32 164.45 123.3 90.1 166.99C40.54 196.12 14.21 240.57 11.12 300.35C12.32 361.1 34.02 390.69 61.36 410.16C88.7 429.63 147.56 442.11 178.99 504.72Z" id="a1vJtJEEbS"></path><path d="M317.05 438.41C253.55 438.59 201.85 387.83 201.68 325.12C201.5 262.43 252.91 211.37 316.42 211.2C379.91 211.02 431.62 261.78 431.79 324.48C431.97 387.17 380.55 438.23 317.05 438.41Z" id="eXgUulO9G"></path><path d="M307.04 251.02C275.37 258.18 255.77 275.29 248.25 302.37" id="g6DvJs2zOx"></path><path d="M261.61 373.56C254.97 368.96 250.88 362.83 249.35 355.17" id="a16otfaai"></path><path d="M99.27 222.86C67.08 246.37 53.28 279.33 57.88 321.74" id="aVp6GbxgN"></path><path d="M178.99 176.1L139.89 197.56" id="c2HQcAX19a"></path></defs><g><g><g><use xlink:href="#a1vJtJEEbS" opacity="1" fill="#cffdd6" fill-opacity="1"></use><g><use xlink:href="#a1vJtJEEbS" opacity="1" fill-opacity="0" stroke="#078471" stroke-width="16" stroke-opacity="1"></use></g></g><g><use xlink:href="#eXgUulO9G" opacity="1" fill="#ffb682" fill-opacity="1"></use><g><use xlink:href="#eXgUulO9G" opacity="1" fill-opacity="0" stroke="#c5754a" stroke-width="16" stroke-opacity="1"></use></g></g><g><use xlink:href="#g6DvJs2zOx" opacity="1" fill="#000000" fill-opacity="0"></use><g><use xlink:href="#g6DvJs2zOx" opacity="1" fill-opacity="0" stroke="#ffffff" stroke-width="16" stroke-opacity="1"></use></g></g><g><use xlink:href="#a16otfaai" opacity="1" fill="#000000" fill-opacity="0"></use><g><use xlink:href="#a16otfaai" opacity="1" fill-opacity="0" stroke="#ffffff" stroke-width="16" stroke-opacity="1"></use></g></g><g><use xlink:href="#aVp6GbxgN" opacity="1" fill="#000000" fill-opacity="0"></use><g><use xlink:href="#aVp6GbxgN" opacity="1" fill-opacity="0" stroke="#078471" stroke-width="16" stroke-opacity="1"></use></g></g><g><use xlink:href="#c2HQcAX19a" opacity="1" fill="#000000" fill-opacity="0"></use><g><use xlink:href="#c2HQcAX19a" opacity="1" fill-opacity="0" stroke="#078471" stroke-width="16" stroke-opacity="1"></use></g></g></g></g></svg>